<mxfile host="Electron" modified="2024-07-13T09:45:07.094Z" agent="Mozilla/5.0 (Macintosh; Intel Mac OS X 10_15_7) AppleWebKit/537.36 (KHTML, like Gecko) draw.io/24.6.4 Chrome/124.0.6367.207 Electron/30.0.6 Safari/537.36" etag="uz_snsCCv4Lhy3SmeVSh" version="24.6.4" type="device">
  <diagram name="페이지-1" id="M9-4f_MAl8bMelxesaw6">
    <mxGraphModel dx="996" dy="894" grid="1" gridSize="10" guides="1" tooltips="1" connect="1" arrows="1" fold="1" page="1" pageScale="1" pageWidth="827" pageHeight="1169" math="0" shadow="0">
      <root>
        <mxCell id="0" />
        <mxCell id="1" parent="0" />
        <mxCell id="fpKhWrLARtiBmoZnxf9d-1" value="" style="endArrow=block;html=1;rounded=0;strokeWidth=2;endFill=1;" edge="1" parent="1" source="fpKhWrLARtiBmoZnxf9d-4">
          <mxGeometry width="50" height="50" relative="1" as="geometry">
            <mxPoint x="164.5" y="120" as="sourcePoint" />
            <mxPoint x="164.5" y="470" as="targetPoint" />
          </mxGeometry>
        </mxCell>
        <mxCell id="fpKhWrLARtiBmoZnxf9d-3" value="" style="ellipse;whiteSpace=wrap;html=1;aspect=fixed;fillStyle=auto;fillColor=#000000;" vertex="1" parent="1">
          <mxGeometry x="150" y="160" width="30" height="30" as="geometry" />
        </mxCell>
        <mxCell id="fpKhWrLARtiBmoZnxf9d-5" value="" style="endArrow=none;html=1;rounded=0;strokeWidth=2;endFill=0;" edge="1" parent="1" target="fpKhWrLARtiBmoZnxf9d-4">
          <mxGeometry width="50" height="50" relative="1" as="geometry">
            <mxPoint x="164.5" y="120" as="sourcePoint" />
            <mxPoint x="164.5" y="470" as="targetPoint" />
          </mxGeometry>
        </mxCell>
        <mxCell id="fpKhWrLARtiBmoZnxf9d-4" value="" style="ellipse;whiteSpace=wrap;html=1;aspect=fixed;fillStyle=auto;fillColor=#000000;" vertex="1" parent="1">
          <mxGeometry x="150" y="248" width="30" height="30" as="geometry" />
        </mxCell>
        <mxCell id="fpKhWrLARtiBmoZnxf9d-6" value="" style="ellipse;whiteSpace=wrap;html=1;aspect=fixed;fillStyle=auto;fillColor=#000000;" vertex="1" parent="1">
          <mxGeometry x="150" y="330" width="30" height="30" as="geometry" />
        </mxCell>
        <mxCell id="fpKhWrLARtiBmoZnxf9d-7" value="" style="endArrow=block;html=1;rounded=0;strokeWidth=2;endFill=1;" edge="1" parent="1" source="fpKhWrLARtiBmoZnxf9d-10">
          <mxGeometry width="50" height="50" relative="1" as="geometry">
            <mxPoint x="331.5" y="120" as="sourcePoint" />
            <mxPoint x="331.5" y="470" as="targetPoint" />
          </mxGeometry>
        </mxCell>
        <mxCell id="fpKhWrLARtiBmoZnxf9d-8" value="" style="ellipse;whiteSpace=wrap;html=1;aspect=fixed;fillStyle=auto;fillColor=#000000;" vertex="1" parent="1">
          <mxGeometry x="317" y="200" width="30" height="30" as="geometry" />
        </mxCell>
        <mxCell id="fpKhWrLARtiBmoZnxf9d-9" value="" style="endArrow=none;html=1;rounded=0;strokeWidth=2;endFill=0;" edge="1" parent="1" target="fpKhWrLARtiBmoZnxf9d-10">
          <mxGeometry width="50" height="50" relative="1" as="geometry">
            <mxPoint x="331.5" y="120" as="sourcePoint" />
            <mxPoint x="331.5" y="470" as="targetPoint" />
          </mxGeometry>
        </mxCell>
        <mxCell id="fpKhWrLARtiBmoZnxf9d-10" value="" style="ellipse;whiteSpace=wrap;html=1;aspect=fixed;fillStyle=auto;fillColor=#000000;" vertex="1" parent="1">
          <mxGeometry x="317" y="288" width="30" height="30" as="geometry" />
        </mxCell>
        <mxCell id="fpKhWrLARtiBmoZnxf9d-11" value="" style="ellipse;whiteSpace=wrap;html=1;aspect=fixed;fillStyle=auto;fillColor=#000000;" vertex="1" parent="1">
          <mxGeometry x="317" y="370" width="30" height="30" as="geometry" />
        </mxCell>
        <mxCell id="fpKhWrLARtiBmoZnxf9d-12" value="주문 애그리거트 구함" style="text;html=1;align=center;verticalAlign=middle;whiteSpace=wrap;rounded=0;" vertex="1" parent="1">
          <mxGeometry x="173" y="165" width="130" height="20" as="geometry" />
        </mxCell>
        <mxCell id="fpKhWrLARtiBmoZnxf9d-13" value="주문 애그리거트 구함" style="text;html=1;align=center;verticalAlign=middle;whiteSpace=wrap;rounded=0;" vertex="1" parent="1">
          <mxGeometry x="339" y="205" width="130" height="20" as="geometry" />
        </mxCell>
        <mxCell id="fpKhWrLARtiBmoZnxf9d-14" value="배송 상태로 변경" style="text;html=1;align=center;verticalAlign=middle;whiteSpace=wrap;rounded=0;" vertex="1" parent="1">
          <mxGeometry x="165" y="253" width="130" height="20" as="geometry" />
        </mxCell>
        <mxCell id="fpKhWrLARtiBmoZnxf9d-15" value="트랜잭션 커밋" style="text;html=1;align=center;verticalAlign=middle;whiteSpace=wrap;rounded=0;" vertex="1" parent="1">
          <mxGeometry x="160" y="335" width="130" height="20" as="geometry" />
        </mxCell>
        <mxCell id="fpKhWrLARtiBmoZnxf9d-16" value="배송지 변경" style="text;html=1;align=center;verticalAlign=middle;whiteSpace=wrap;rounded=0;" vertex="1" parent="1">
          <mxGeometry x="321" y="293" width="130" height="20" as="geometry" />
        </mxCell>
        <mxCell id="fpKhWrLARtiBmoZnxf9d-17" value="트랜잭션 커밋" style="text;html=1;align=center;verticalAlign=middle;whiteSpace=wrap;rounded=0;" vertex="1" parent="1">
          <mxGeometry x="323" y="375" width="130" height="20" as="geometry" />
        </mxCell>
        <mxCell id="fpKhWrLARtiBmoZnxf9d-18" value="운영자 스레드" style="text;html=1;align=center;verticalAlign=middle;whiteSpace=wrap;rounded=0;fontStyle=1" vertex="1" parent="1">
          <mxGeometry x="125" y="90" width="80" height="30" as="geometry" />
        </mxCell>
        <mxCell id="fpKhWrLARtiBmoZnxf9d-19" value="고객 스레드" style="text;html=1;align=center;verticalAlign=middle;whiteSpace=wrap;rounded=0;fontStyle=1" vertex="1" parent="1">
          <mxGeometry x="292" y="90" width="80" height="30" as="geometry" />
        </mxCell>
      </root>
    </mxGraphModel>
  </diagram>
</mxfile>
